<?xml version="1.0" standalone="no"?><svg xmlns="http://www.w3.org/2000/svg" viewBox="0 0 1440 320"><path fill="#B75D69" fill-opacity="1" d="M0,160L8.9,160C17.8,160,36,160,53,181.3C71.1,203,89,245,107,234.7C124.4,224,142,160,160,165.3C177.8,171,196,245,213,277.3C231.1,309,249,299,267,266.7C284.4,235,302,181,320,160C337.8,139,356,149,373,176C391.1,203,409,245,427,240C444.4,235,462,181,480,170.7C497.8,160,516,192,533,208C551.1,224,569,224,587,197.3C604.4,171,622,117,640,101.3C657.8,85,676,107,693,144C711.1,181,729,235,747,234.7C764.4,235,782,181,800,181.3C817.8,181,836,235,853,250.7C871.1,267,889,245,907,234.7C924.4,224,942,224,960,234.7C977.8,245,996,267,1013,240C1031.1,213,1049,139,1067,138.7C1084.4,139,1102,213,1120,229.3C1137.8,245,1156,203,1173,176C1191.1,149,1209,139,1227,133.3C1244.4,128,1262,128,1280,144C1297.8,160,1316,192,1333,181.3C1351.1,171,1369,117,1387,106.7C1404.4,96,1422,128,1431,144L1440,160L1440,320L1431.1,320C1422.2,320,1404,320,1387,320C1368.9,320,1351,320,1333,320C1315.6,320,1298,320,1280,320C1262.2,320,1244,320,1227,320C1208.9,320,1191,320,1173,320C1155.6,320,1138,320,1120,320C1102.2,320,1084,320,1067,320C1048.9,320,1031,320,1013,320C995.6,320,978,320,960,320C942.2,320,924,320,907,320C888.9,320,871,320,853,320C835.6,320,818,320,800,320C782.2,320,764,320,747,320C728.9,320,711,320,693,320C675.6,320,658,320,640,320C622.2,320,604,320,587,320C568.9,320,551,320,533,320C515.6,320,498,320,480,320C462.2,320,444,320,427,320C408.9,320,391,320,373,320C355.6,320,338,320,320,320C302.2,320,284,320,267,320C248.9,320,231,320,213,320C195.6,320,178,320,160,320C142.2,320,124,320,107,320C88.9,320,71,320,53,320C35.6,320,18,320,9,320L0,320Z"></path></svg>